# xmcd CD database file
#
# Track frame offsets:
#	150
#	34844
#	71816
#	97607
#	123656
#	132962
#	184907
#	196677
#	205972
#	218962
#	226038
#	249768
#	264741
#	295212
#	302179
#	311570
#	320780
#
# Disc length: 4395 seconds
#
# Revision: 1
# Processed by: cddbd v1.5.2PL0 Copyright (c) Steve Scherf et al.
# Submitted via: CDex 1.70
#
DISCID=fc112911
DTITLE=Kirkby - Stocken - Chamber Music by Margaret Hubicki
DYEAR=2004
DGENRE=Piano Duet
TTITLE0=From the Isles of the Sea: Tempo comodo
TTITLE1=Piano Sonata -I- Allegro risoluto
TTITLE2=Piano Sonata -II- Pastorale. Tranquillo, ma non troppo lento
TTITLE3=Piano Sonata -III- Allegro moderato
TTITLE4=Full Fathom Five for Mezzo Soprano and Piano (For C.M.M): Moderato e deciso
TTITLE5=Theme and Variations for String Quartet: Theme - Andante -I- L'istesso tempo -II- Allegretto -III- Allegro vigoroso -IV- Adagio -V- Tempo tranquillo -VI- Finale. Allegretto con moto 
TTITLE6=Irish Fantasy: Four Sketches for Piano -I- The Lonely Piper
TTITLE7=Irish Fantasy: Four Sketches for Piano -II- The Banshee's Dance
TTITLE8=Irish Fantasy: Four Sketches for Piano -III- The Sorrow of Etaine
TTITLE9=Irish Fantasy: Four Sketches for Piano -IV- Reel
TTITLE10=Lonely Mere and Rigadoun for Cello and Piano -I- Lonely Mere
TTITLE11=Lonely Mere and Rigadoun for Cello and Piano -II- Rigadoun 
TTITLE12=Svolgimento for Violin and Piano: Allegro vigoroso - Poco meno mosso - Tempo I - Brilliante - A tempo
TTITLE13=Goladen Suite for Piano Duet -I- Serenade
TTITLE14=Goladen Suite for Piano Duet -II- Easter Chorale
TTITLE15=Goladen Suite for Piano Duet -III- Summer's Eve
TTITLE16=Goladen Suite for Piano Duet -IV- The Spindle Song
EXTD=YEAR: 2004
EXTT0=
EXTT1=
EXTT2=
EXTT3=
EXTT4=
EXTT5=
EXTT6=
EXTT7=
EXTT8=
EXTT9=
EXTT10=
EXTT11=
EXTT12=
EXTT13=
EXTT14=
EXTT15=
EXTT16=
PLAYORDER=
